IKResults
version=1
nRows=10
nColumns=63
inDegrees=yes

Units are S.I. units (second, meters, Newtons, ...)
If the header above contains a line with 'inDegrees', this indicates whether rotational values are in degrees (yes) or radians (no).

endheader
time	pelvis_tilt	pelvis_list	pelvis_rotation	pelvis_tx	pelvis_ty	pelvis_tz	hip_flexion_r	hip_adduction_r	hip_rotation_r	knee_angle_r	knee_angle_r_beta	ankle_angle_r	subtalar_angle_r	mtp_angle_r	hip_flexion_l	hip_adduction_l	hip_rotation_l	knee_angle_l	knee_angle_l_beta	ankle_angle_l	subtalar_angle_l	mtp_angle_l	L5_S1_Flex_Ext	L5_S1_Lat_Bending	L5_S1_axial_rotation	L4_L5_Flex_Ext	L4_L5_Lat_Bending	L4_L5_axial_rotation	L3_L4_Flex_Ext	L3_L4_Lat_Bending	L3_L4_axial_rotation	L2_L3_Flex_Ext	L2_L3_Lat_Bending	L2_L3_axial_rotation	L1_L2_Flex_Ext	L1_L2_Lat_Bending	L1_L2_axial_rotation	L1_T12_Flex_Ext	L1_T12_Lat_Bending	L1_T12_axial_rotation	Abs_r3	Abs_r2	Abs_r1	Abs_t1	Abs_t2	neck_flexion	neck_bending	neck_rotation	arm_flex_r	arm_add_r	arm_rot_r	elbow_flex_r	pro_sup_r	wrist_flex_r	wrist_dev_r	arm_flex_l	arm_add_l	arm_rot_l	elbow_flex_l	pro_sup_l	wrist_flex_l	wrist_dev_l
      6.03333333	    -33.29707601	     -4.79764563	     13.66691171	     -0.84541871	      0.90100192	     -0.24484069	     26.82403569	     -9.29884442	    -30.01064767	      6.62263201	      0.11558673	     12.94604124	      0.02517236	      0.00000000	     31.50611066	     -2.49278277	      2.66594446	      8.94976951	      0.15620295	      7.64312370	    -18.22023623	      0.00000000	      6.53524166	     -0.75737623	      1.30907767	     12.13659728	     -1.00731038	      1.39089503	     10.73674852	     -1.84148455	      1.39089503	      7.46912769	     -1.84148455	      1.14544296	      6.06862540	     -1.54444160	      1.06362561	      3.73423708	     -1.17317577	      0.98180825	     46.68057762	     -8.56759134	      7.28069728	      0.00000000	      0.00000000	      2.01528687	     -1.06270124	    -19.94605672	    -36.03931709	     -3.36330253	     -9.36696934	     35.27928339	     89.99559364	      0.00000000	      0.00000000	     -6.10186566	    -18.18537063	     44.37403120	     29.38116431	     89.99559364	      0.00000000	      0.00000000
      6.06666667	    -33.19742906	     -4.80298954	     13.64926044	     -0.84565575	      0.90139240	     -0.24506398	     26.76112649	     -9.28985471	    -29.81201256	      6.61285907	      0.11541616	     13.14923480	      0.15246265	      0.00000000	     31.46224370	     -2.51464454	      2.73232556	      8.97785590	      0.15669315	      7.66440989	    -18.22007195	      0.00000000	      6.56236165	     -0.75928025	      1.26942795	     12.18696183	     -1.00984273	      1.34876720	     10.78130396	     -1.84611400	      1.34876720	      7.50012313	     -1.84611400	      1.11074946	      6.09380903	     -1.54832429	      1.03141021	      3.74973345	     -1.17612511	      0.95207096	     46.87429305	     -8.58913007	      7.06017742	      0.00000000	      0.00000000	      2.08958137	     -1.12668077	    -19.78778316	    -35.84858093	     -3.50072461	     -9.24691665	     35.16469295	     89.99559364	      0.00000000	      0.00000000	     -6.28120212	    -18.14162711	     44.55606059	     28.92783363	     89.99559364	      0.00000000	      0.00000000
      6.10000000	    -32.80874184	     -5.12467451	     14.33802986	     -0.84653991	      0.90200296	     -0.24628279	     26.23549846	     -9.19077681	    -30.56490742	      6.46718382	      0.11287365	     13.40712473	      0.45470458	      0.00000000	     31.42597347	     -2.50451681	      3.55448832	      9.16004292	      0.15987291	      7.73020652	    -18.24259985	      0.00000000	      6.53790373	     -0.75095666	      1.12936026	     12.14154102	     -0.99877236	      1.19994528	     10.74112204	     -1.82587602	      1.19994528	      7.47217018	     -1.82587602	      0.98819023	      6.07109741	     -1.53135082	      0.91760521	      3.73575819	     -1.16323187	      0.84702019	     46.69959258	     -8.49497193	      6.28116295	      0.00000000	      0.00000000	      2.02979603	     -1.05222325	    -18.83576759	    -35.42397136	     -4.37273032	     -6.39137594	     34.64473256	     89.99559364	      0.00000000	      0.00000000	     -5.32144233	    -17.89927954	     48.36020752	     27.33109451	     89.99559364	      0.00000000	      0.00000000
      6.13333333	    -32.74749885	     -5.14734836	     14.35272705	     -0.84688377	      0.90223797	     -0.24647894	     26.19990796	     -9.16836901	    -30.54629065	      6.48046189	      0.11310540	     13.41942300	      0.46396864	      0.00000000	     31.40869152	     -2.51193602	      3.56169560	      9.16484219	      0.15995667	      7.74689361	    -18.22147688	      0.00000000	      6.54831976	     -0.75449523	      1.13329842	     12.16088464	     -1.00347865	      1.20412957	     10.75823454	     -1.83447969	      1.20412957	      7.48407466	     -1.83447969	      0.99163612	      6.08076973	     -1.53856666	      0.92080497	      3.74170991	     -1.16871310	      0.84997382	     46.77399325	     -8.53500089	      6.30306583	      0.00000000	      0.00000000	      2.03823130	     -1.05984135	    -18.82897078	    -35.35374072	     -4.40530093	     -6.40194397	     34.65843652	     89.99559364	      0.00000000	      0.00000000	     -5.33207312	    -17.90406040	     48.36803222	     27.31223496	     89.99559364	      0.00000000	      0.00000000
      6.16666667	    -32.59681546	     -5.12559853	     14.34182184	     -0.84709617	      0.90239069	     -0.24673425	     26.04993910	     -9.17106682	    -30.31823098	      6.53876029	      0.11412290	     13.75873937	      0.73489223	      0.00000000	     31.25113306	     -2.50699863	      3.86017517	      9.17458473	      0.16012671	      8.13795290	    -18.19168105	      0.00000000	      6.53457683	     -0.74923030	      1.13513476	     12.13536264	     -0.99647631	      1.20608069	     10.73565628	     -1.82167856	      1.20608069	      7.46836786	     -1.82167856	      0.99324292	      6.06800805	     -1.52783044	      0.92229700	      3.73385720	     -1.16055774	      0.85135107	     46.67582886	     -8.47544305	      6.31327902	      0.00000000	      0.00000000	      2.13796801	     -1.21296129	    -18.39083091	    -35.14477254	     -4.51384316	     -6.29766018	     34.39713229	     89.99559364	      0.00000000	      0.00000000	     -5.09046704	    -17.60816025	     48.83212560	     26.31400529	     89.99559364	      0.00000000	      0.00000000
      6.20000000	    -32.59583609	     -5.14235458	     14.36310517	     -0.84720277	      0.90245606	     -0.24687514	     26.03224332	     -9.15287240	    -30.30387247	      6.55603168	      0.11442434	     13.76553351	      0.73736855	      0.00000000	     31.25738626	     -2.49559344	      3.85894957	      9.17803588	      0.16018695	      8.16327913	    -18.12648054	      0.00000000	      6.53861632	     -0.74974083	      1.14109131	     12.14286436	     -0.99715531	      1.21240951	     10.74229275	     -1.82291986	      1.21240951	      7.47298459	     -1.82291986	      0.99845489	      6.07175911	     -1.52887151	      0.92713669	      3.73616536	     -1.16134855	      0.85581848	     46.70468250	     -8.48121825	      6.34640753	      0.00000000	      0.00000000	      2.13560552	     -1.21067289	    -18.38719740	    -35.09893703	     -4.51469709	     -6.29591379	     34.40202801	     89.99559364	      0.00000000	      0.00000000	     -5.09609396	    -17.61133658	     48.84116807	     26.31459815	     89.99559364	      0.00000000	      0.00000000
      6.23333333	    -32.04028452	     -4.54833152	     13.63966431	     -0.84613390	      0.90285010	     -0.24677305	     25.62740476	     -9.58855869	    -31.76839071	      7.19427341	      0.12556376	     14.88494303	      4.32075732	      0.00000000	     30.16663621	     -2.40856498	      3.08872512	      8.86699128	      0.15475819	      8.80032974	    -18.12216474	      0.00000000	      6.43855323	     -0.75588327	      1.38501729	     11.95703720	     -1.00532475	      1.47158087	     10.57789910	     -1.83785458	      1.47158087	      7.35862248	     -1.83785458	      1.21189013	      5.97884053	     -1.54139716	      1.12532655	      3.67898931	     -1.17086318	      1.03876297	     45.98994185	     -8.55070270	      7.70305066	      0.00000000	      0.00000000	      1.92228048	     -1.01442605	    -18.39372711	    -35.14646794	     -4.41491395	     -6.17239745	     34.50806578	     89.99559364	      0.00000000	      0.00000000	     -3.25875168	    -17.94152525	     57.02976014	     25.55093333	     89.99559364	      0.00000000	      0.00000000
      6.26666667	    -32.07411780	     -4.56575475	     13.68091813	     -0.84598027	      0.90276612	     -0.24683453	     25.60700949	     -9.58221124	    -31.76385612	      7.20908979	      0.12582235	     14.87648495	      4.32215114	      0.00000000	     30.17730257	     -2.39229852	      3.08814854	      8.86101759	      0.15465393	      8.82174422	    -18.11607621	      0.00000000	      6.43567593	     -0.75465830	      1.39097279	     11.95169377	     -1.00369554	      1.47790859	     10.57317198	     -1.83487619	      1.47790859	      7.35533402	     -1.83487619	      1.21710119	      5.97616867	     -1.53889920	      1.13016539	      3.67734523	     -1.16896571	      1.04322959	     45.96938959	     -8.53684561	      7.73617336	      0.00000000	      0.00000000	      1.91509172	     -1.00489648	    -18.39653286	    -35.14233105	     -4.40090837	     -6.17089903	     34.51845637	     89.99559364	      0.00000000	      0.00000000	     -3.25539111	    -17.95188988	     57.02830657	     25.55257388	     89.99559364	      0.00000000	      0.00000000
      6.30000000	    -31.95037190	     -4.51936207	     13.84850445	     -0.84576498	      0.90263242	     -0.24725719	     25.47854692	     -9.74505588	    -31.89108976	      7.48180336	      0.13058210	     14.95991525	      4.23878529	      0.00000000	     30.04102475	     -2.28188293	      3.25599479	      8.92086876	      0.15569853	      9.18450819	    -18.08790148	      0.00000000	      6.39516811	     -0.76618174	      1.42955949	     11.87646670	     -1.01902171	      1.51890696	     10.50662169	     -1.86289428	      1.51890696	      7.30903764	     -1.86289428	      1.25086455	      5.93855311	     -1.56239780	      1.16151708	      3.65419906	     -1.18681551	      1.07216962	     45.68004632	     -8.66720106	      7.95078100	      0.00000000	      0.00000000	      1.83550451	     -0.70223765	    -18.71299247	    -35.42830674	     -4.26185631	     -6.39063118	     35.03810220	     89.99559364	      0.00000000	      0.00000000	     -3.00892657	    -17.98042434	     56.99926163	     25.75096436	     89.99559364	      0.00000000	      0.00000000
      6.33333333	    -31.90509250	     -4.35393792	     14.07813728	     -0.84555561	      0.90247030	     -0.24767890	     25.34543459	    -10.04536107	    -32.03468626	      7.63520273	      0.13325943	     15.05630581	      4.24809150	      0.00000000	     29.94159662	     -2.01834987	      3.34039687	      8.92828174	      0.15582791	      9.30012352	    -18.07666966	      0.00000000	      6.35428982	     -0.79256653	      1.45775304	     11.80055163	     -1.05411348	      1.54886260	     10.43946275	     -1.92704626	      1.54886260	      7.26231784	     -1.92704626	      1.27553391	      5.90059353	     -1.61620167	      1.18442434	      3.63084120	     -1.22768555	      1.09331478	     45.38805678	     -8.96567109	      8.10758507	      0.00000000	      0.00000000	      1.93101426	     -0.67355464	    -19.15641662	    -35.62556881	     -3.98076199	     -6.98863370	     35.41336424	     89.99559364	      0.00000000	      0.00000000	     -2.82214045	    -18.11446372	     56.96749737	     26.04069079	     89.99559364	      0.00000000	      0.00000000
